<svg xmlns="http://www.w3.org/2000/svg" width="156.294" height="145.959" viewBox="0 0 156.294 145.959">
  <path id="Intersezione_1" data-name="Intersezione 1" d="M102.77,200.093c-10.682-1.1-21.129-6.273-29.422-14.567-17.271-17.3-19.738-42.94-5.46-57.218a32.454,32.454,0,0,1,21.733-9.239c.42-.026.84-.026,1.26-.026a5.025,5.025,0,0,1,.63-.026c11.522,0,23.911,5.039,33.622,14.751a52.464,52.464,0,0,1,7.69,9.738c.105.184.21.341.315.525l.551.945c.184.341.367.656.551,1,.105.184.184.367.289.551.262.473.5.971.735,1.443l.079.157a45.779,45.779,0,0,1,4.331,15.066,35.564,35.564,0,0,1-3.412,19.974,3.142,3.142,0,0,1-.209.42c-.079.157-.158.289-.237.42a30.2,30.2,0,0,1-5.2,6.982,1.73,1.73,0,0,1-.236.21.691.691,0,0,1-.158.131A32.829,32.829,0,0,1,107,200.3,38.329,38.329,0,0,1,102.77,200.093ZM77.861,181.064c7.244,7.27,16.352,11.81,25.591,12.756,8.242.866,15.67-1.26,21.207-5.932l-1.6-4.829a29.529,29.529,0,0,0-23.99-20.026,36.273,36.273,0,0,1-28.032-21.5l-1.968-4.567C61.274,149.226,64.659,167.862,77.861,181.064Zm12.914-55.723a27.246,27.246,0,0,0-15.905,5.328.026.026,0,0,1-.026.026c-.367.289-.735.577-1.1.892-.026,0-.026.026-.052.026.289.814.578,1.522.866,2.2l2.257,5.275a29.87,29.87,0,0,0,23.123,17.716,35.8,35.8,0,0,1,29.082,24.252l.42,1.313c7.822-12.257,4.462-30.892-8.766-44.121a46.5,46.5,0,0,0-8.766-6.929c-.184-.105-.342-.21-.525-.315-.315-.209-.656-.393-.971-.577l-.866-.473c-.21-.105-.446-.237-.656-.341-.341-.184-.682-.342-1.023-.5-.184-.079-.342-.157-.525-.236l-1.1-.473c-.157-.079-.341-.132-.5-.21-.367-.157-.708-.289-1.076-.42-.184-.079-.367-.132-.551-.21-.315-.105-.656-.236-1-.341-.237-.079-.447-.132-.683-.21-.289-.079-.6-.184-.892-.262s-.551-.157-.84-.237c-.236-.052-.5-.131-.735-.184-.341-.079-.708-.157-1.05-.236-.184-.026-.367-.079-.551-.105-.42-.105-.866-.157-1.285-.236-.105-.026-.237-.026-.342-.053-.5-.079-1-.131-1.5-.184-.053,0-.105-.026-.158-.026-.5-.053-1-.105-1.5-.132h-.158c-.472-.026-.919-.052-1.365-.052h-.315C91.4,125.316,91.09,125.341,90.775,125.341Zm44.383,9.134c9.554-.631,19.344-5.328,26.877-12.861,7.27-7.244,11.811-16.352,12.756-25.59.893-8.662-1.469-16.431-6.667-22.022l-4.068,1.365a29.529,29.529,0,0,0-20.026,23.99c-1.89,13.2-10.735,23.439-24.279,28.084l-2.048-5.958c11.391-3.911,18.531-12.074,20.106-23.018a35.84,35.84,0,0,1,24.252-29.081l.131-.053A29.139,29.139,0,0,0,144.318,66.1a40.675,40.675,0,0,0-4.987.944l-.551.157c-.367.079-.708.184-1.05.289-.315.105-.656.21-.971.315-.21.079-.394.131-.6.21-.447.157-.866.315-1.286.472-.105.053-.21.079-.315.132-.5.184-.971.394-1.443.6l-.157.079-1.5.708c-.026.026-.079.026-.105.052-.5.237-.971.5-1.47.761a.581.581,0,0,1-.131.079c-.447.262-.919.525-1.365.787-.079.053-.157.079-.236.132-.394.236-.814.5-1.207.761-.131.079-.236.157-.367.236l-1.024.708c-.184.105-.367.237-.551.367-.262.184-.5.394-.761.578s-.525.394-.761.578c-.157.131-.289.236-.446.367a45.736,45.736,0,0,0-3.78,3.386h-.026c-9.948,9.947-14.672,23.386-12.362,35.092l-6.195,1.234c-2.7-13.727,2.7-29.37,14.095-40.762.893-.866,1.811-1.706,2.73-2.519.158-.132.315-.289.473-.42l.866-.708c.315-.236.6-.473.892-.708.184-.157.394-.315.6-.473.394-.315.788-.6,1.182-.892a3.1,3.1,0,0,1,.367-.262q.747-.551,1.5-1.024c.026-.026.079-.053.105-.079a47,47,0,0,1,20.1-7.428,36.626,36.626,0,0,1,17.455,1.995c.105.052.236.105.367.157.393.158.787.315,1.155.473.262.105.5.21.761.341.236.105.473.21.708.342.367.184.735.367,1.1.577.105.053.21.132.315.184.472.262.944.551,1.391.84h.026a30.493,30.493,0,0,1,5.118,4.094c7.008,6.982,10.236,16.851,9.082,27.822-1.1,10.657-6.273,21.1-14.567,29.4-8.609,8.609-19.869,13.964-30.919,14.7ZM25,91.116c0-20.262,19.974-36.772,44.541-36.772,16.378,0,31.391,7.375,39.292,19.318l-5.275,3.464c-6.641-10.131-19.633-16.4-33.911-16.4-.63,0-1.286,0-1.916.026-.21,0-.42.026-.63.026l-1.26.079-.761.079c-.394.026-.761.052-1.129.105-.262.026-.525.079-.787.105-.341.052-.708.105-1.05.157a7.51,7.51,0,0,0-.814.132c-.315.052-.656.1-1,.184-.289.052-.551.131-.814.184-.315.052-.656.131-.971.209-.289.079-.551.132-.814.21-.315.079-.63.184-.945.262l-.787.237c-.315.1-.63.184-.919.288-.262.079-.525.184-.788.262-.315.105-.6.21-.892.315-.262.079-.5.184-.761.289-.289.105-.577.21-.866.341-.237.105-.5.21-.735.315-.289.131-.578.262-.84.393a6.238,6.238,0,0,0-.735.342c-.289.131-.551.289-.814.42-.237.105-.473.237-.708.367-.262.157-.525.289-.788.446-.236.132-.446.262-.682.394-.262.157-.525.315-.761.473-.21.131-.446.262-.656.42-.262.157-.5.341-.735.5-.21.157-.42.289-.63.446-.236.157-.473.341-.708.525-.21.157-.42.315-.6.473-.209.184-.446.367-.656.551-.21.157-.394.315-.578.473-.21.184-.42.367-.63.577-.184.158-.341.342-.525.5-.21.21-.394.42-.6.63-.157.157-.341.315-.5.5-.184.209-.394.446-.578.656-.157.183-.289.341-.446.525-.21.236-.394.473-.578.709-.131.157-.262.341-.394.5a9.389,9.389,0,0,0-.6.814c-.105.131-.21.289-.315.42-.288.42-.551.84-.814,1.286a.814.814,0,0,1-.131.262c-.21.367-.42.708-.6,1.076a4.592,4.592,0,0,0-.262.5c-.131.262-.289.551-.42.84a5.568,5.568,0,0,0-.262.577c-.105.263-.237.551-.342.814l-.236.63c-.105.262-.21.525-.289.787a6.455,6.455,0,0,0-.21.656l-.236.787c-.052.237-.105.446-.157.683-.079.262-.132.525-.184.787a6.211,6.211,0,0,0-.132.683c-.052.289-.105.551-.131.814l-.079.708c-.026.184-.026.367-.052.551l6.614,2.651A29.92,29.92,0,0,0,66.89,87.861a36,36,0,0,1,33.045-5.355L97.94,88.491A29.759,29.759,0,0,0,70.67,92.9,36.262,36.262,0,0,1,35.682,97.52L31.8,95.971c2.519,12.625,14.751,22.835,30.945,25.144l-.893,6.247C40.512,124.292,25,109.042,25,91.116Z" transform="translate(-25 -54.344)" fill="#c08f2d"/>
</svg>
